# xmcd CD database file
#
# Track frame offsets:
#	150
#	19019
#	37315
#	56532
#	70496
#	91295
#	115927
#	136362
#	153440
#	168188
#	192062
#	206945
#	220320
#	234414
#
# Disc length: 3379 seconds
#
# Revision: 0
# Processed by: cddbd v1.5.2PL0 Copyright (c) Steve Scherf et al.
# Submitted via: CDex 1.51
#
DISCID=c90d310e
DTITLE=Steve Devries - Horizons
DYEAR=2006
DGENRE=Jazz
TTITLE0=Tightwire
TTITLE1=Horizons
TTITLE2=Kierra's Smile
TTITLE3=Road Trip
TTITLE4=Peace In The House
TTITLE5=Michael's Song
TTITLE6=Tears For Ireland
TTITLE7=Irish Tequila
TTITLE8=Virginia Sky
TTITLE9=Song Of O'Sullivan
TTITLE10=Wandering
TTITLE11=Jessica's Song
TTITLE12=Reef the Main Boys
TTITLE13=America Sleeps
EXTD=YEAR: 2006
EXTT0=
EXTT1=
EXTT2=
EXTT3=
EXTT4=
EXTT5=
EXTT6=
EXTT7=
EXTT8=
EXTT9=
EXTT10=
EXTT11=
EXTT12=
EXTT13=
PLAYORDER=
